<?xml version="1.0" standalone="no"?>
<!DOCTYPE svg PUBLIC "-//W3C//DTD SVG 20010904//EN"
 "http://www.w3.org/TR/2001/REC-SVG-20010904/DTD/svg10.dtd">
<svg version="1.0" xmlns="http://www.w3.org/2000/svg"
 width="1280.000000pt" height="720.000000pt" viewBox="0 0 1280.000000 720.000000"
 preserveAspectRatio="xMidYMid meet">

<g transform="translate(0.000000,720.000000) scale(0.100000,-0.100000)"
fill="#000000" stroke="none">
<path d="M0 5050 c0 -1182 3 -2150 6 -2150 13 0 285 219 434 349 193 169 467
443 625 624 66 76 122 143 124 149 2 5 -2 20 -9 32 -10 19 -6 37 22 112 43
115 91 200 171 300 61 76 96 103 169 127 18 6 46 64 86 178 l26 76 111 6 c351
16 598 180 818 544 83 136 188 178 317 125 70 -28 159 -161 182 -273 l12 -59
67 0 67 0 4 153 c3 134 6 157 26 195 45 85 129 150 281 217 l96 43 365 6 c346
5 482 15 665 47 132 22 227 64 250 110 18 34 13 59 -19 102 -21 29 -21 29
-106 24 -233 -16 -521 -29 -658 -30 l-153 -2 -4 60 c-6 78 -32 196 -56 253
-11 25 -17 47 -14 50 12 13 553 -86 870 -158 600 -138 1190 -331 1755 -573
251 -108 676 -316 821 -403 31 -19 59 -34 62 -34 6 0 191 -108 312 -182 279
-171 465 -294 465 -310 0 -6 -24 -50 -54 -97 -114 -182 -230 -426 -322 -679
-25 -68 -43 -130 -40 -138 8 -20 49 -34 99 -34 58 0 188 40 194 59 35 100 163
399 195 456 6 11 25 45 41 75 64 118 119 200 131 193 41 -25 211 -157 260
-204 l60 -56 -13 -154 c-7 -85 -16 -172 -19 -194 l-7 -40 -75 -7 c-84 -8 -159
-24 -206 -43 -26 -11 -31 -17 -27 -38 15 -78 -114 -176 -256 -195 -72 -10 -80
-18 -161 -147 -54 -85 -58 -87 -35 -11 22 73 21 80 -15 61 -16 -8 -35 -25 -41
-38 -37 -68 -164 -211 -249 -279 -54 -43 -147 -91 -216 -111 -58 -17 -149 -71
-158 -92 -3 -9 4 -35 16 -60 l22 -44 -25 -21 c-13 -12 -42 -38 -64 -58 -101
-91 -134 -120 -188 -166 -38 -32 -57 -56 -57 -70 0 -13 -12 -33 -26 -47 -15
-13 -121 -125 -237 -249 -298 -319 -496 -519 -612 -619 -55 -47 -102 -88 -105
-92 -3 -3 -36 -30 -75 -60 -232 -182 -442 -306 -624 -369 -62 -22 -70 -22
-195 -11 -167 15 -569 77 -721 111 -22 5 -41 7 -43 6 -3 -3 64 -129 216 -406
86 -157 214 -368 260 -427 l24 -33 170 0 c161 0 171 -1 219 -26 28 -14 70 -42
92 -63 41 -36 47 -38 197 -64 213 -36 248 -41 230 -28 -23 16 -3 13 23 -3 12
-8 92 -26 177 -41 85 -14 173 -30 195 -36 55 -13 124 -22 163 -22 22 0 28 -3
20 -10 -8 -5 3 -7 31 -3 30 3 40 1 30 -5 -10 -6 -4 -9 21 -9 19 0 62 -7 95
-15 33 -8 60 -14 60 -14 0 2 83 -13 152 -27 84 -16 93 -17 73 -4 -12 7 -10 9
7 7 12 0 21 -6 20 -12 -1 -5 7 -10 18 -11 11 -1 27 -4 35 -7 8 -3 54 -13 101
-21 72 -14 198 -16 797 -16 428 0 719 4 730 9 9 6 45 21 79 34 35 13 60 27 55
32 -4 5 -2 5 5 1 6 -3 27 0 45 8 18 8 76 31 128 51 52 20 114 45 136 55 23 11
54 22 68 26 14 3 23 11 19 17 -3 5 -2 7 4 4 9 -6 202 73 228 93 28 21 120 42
206 47 95 6 153 -3 309 -47 83 -24 280 -70 297 -70 10 0 24 -5 30 -11 5 -5 21
-11 34 -13 14 -1 31 -6 37 -10 7 -4 24 -5 37 -2 13 3 27 2 30 -4 4 -6 -1 -7
-12 -4 -15 5 -16 4 -3 -5 8 -6 22 -11 30 -11 24 0 208 -86 245 -114 19 -15 36
-39 40 -56 l7 -30 1124 0 1124 0 -2 2317 -3 2318 -120 21 c-66 12 -181 36
-254 53 -74 17 -138 31 -142 31 -3 0 -9 -21 -12 -47 -3 -27 -17 -109 -32 -183
-26 -135 -38 -197 -70 -365 -10 -49 -22 -96 -28 -103 -19 -24 -61 -40 -142
-53 -44 -7 -81 -13 -82 -14 -3 -2 -49 -245 -64 -334 -21 -131 -71 -190 -174
-204 -22 -3 -193 -2 -380 2 -292 7 -345 10 -374 25 -18 10 -31 18 -29 20 1 1
163 -2 358 -6 382 -9 415 -7 464 38 46 43 54 65 81 209 14 77 44 237 66 355
22 118 64 346 94 505 161 861 154 818 131 864 -34 65 -34 65 -443 74 l-373 9
-45 -22 c-72 -35 -92 -74 -122 -241 -14 -79 -29 -147 -33 -152 -3 -4 -89 13
-191 38 -101 24 -231 51 -288 60 -58 9 -107 17 -109 20 -4 4 21 140 38 205 l9
35 81 -3 c88 -4 121 8 142 54 10 21 18 24 60 24 87 0 116 59 106 214 -8 121
-79 239 -160 265 -18 6 -166 19 -328 31 -162 11 -315 22 -340 25 -25 3 -71 6
-103 7 -52 1 -61 -1 -88 -29 -61 -60 -49 -185 31 -343 21 -41 48 -99 61 -129
14 -31 40 -68 63 -87 33 -28 48 -34 86 -34 26 0 50 3 54 8 7 6 197 4 204 -2 2
-3 -35 -189 -43 -217 -4 -13 -28 -17 -133 -22 -324 -16 -496 -152 -510 -404
-2 -51 -7 -93 -10 -93 -2 0 -30 22 -61 48 -31 27 -126 104 -211 173 -673 539
-1426 1066 -2230 1562 -151 93 -167 105 -184 142 -44 91 8 180 227 390 l151
145 -371 0 -371 0 -91 -132 c-116 -168 -118 -171 -172 -199 -40 -21 -57 -24
-174 -24 -135 1 -207 10 -385 52 -350 81 -550 183 -550 281 l0 22 -2640 0
-2640 0 0 -2150z m1832 1377 c-95 -126 -158 -280 -187 -460 -19 -118 -19 -124
4 -130 18 -4 20 -16 23 -141 3 -122 1 -138 -15 -149 -16 -11 -16 -16 -4 -65
19 -70 26 -76 71 -64 31 9 36 8 36 -6 0 -33 -33 -247 -40 -255 -3 -4 -16 37
-29 90 -12 54 -49 207 -82 339 -83 340 -92 450 -52 594 22 81 56 140 110 193
47 46 190 130 205 121 4 -2 -14 -32 -40 -67z m8406 -692 c-4 -43 -40 -42 -49
1 -5 29 -4 31 23 30 26 -1 29 -4 26 -31z m-102 16 c12 10 13 9 8 -5 -7 -18
-26 -17 -30 2 -1 7 0 8 3 2 3 -8 9 -7 19 1z m88 -70 c-8 -8 -43 -8 -38 0 2 4
13 7 24 6 10 -1 17 -3 14 -6z m-29 -31 c3 -5 1 -10 -4 -10 -6 0 -11 5 -11 10
0 6 2 10 4 10 3 0 8 -4 11 -10z m1832 -333 c10 -10 4 -61 -31 -252 -58 -313
-164 -883 -216 -1160 -23 -121 -47 -226 -54 -234 -12 -11 -84 -12 -429 -5
-277 6 -420 13 -427 20 -8 8 14 145 80 495 50 266 95 507 100 534 5 28 18 97
29 155 11 58 22 119 25 135 28 151 58 303 62 319 6 19 19 19 428 12 312 -5
424 -10 433 -19z m-997 -471 c0 -6 -20 -117 -45 -246 -25 -129 -52 -273 -61
-320 -8 -47 -19 -101 -24 -120 -4 -19 -11 -55 -15 -80 -7 -50 -26 -100 -37
-100 -4 0 -35 23 -69 51 -69 58 -66 45 -39 199 7 36 13 79 14 95 1 17 5 35 8
40 3 6 25 107 48 225 23 118 47 220 53 227 15 15 138 51 155 45 6 -2 12 -9 12
-16z m-306 -504 c2 -4 -4 -8 -14 -8 -10 0 -16 4 -14 8 3 4 9 8 14 8 5 0 11 -4
14 -8z m-3327 -3048 c-3 -3 -12 -4 -19 -1 -8 3 -5 6 6 6 11 1 17 -2 13 -5z
m523 -46 c0 -5 -9 -4 -20 2 -11 6 -20 12 -20 14 0 2 9 2 20 -1 11 -3 20 -9 20
-15z m-743 -14 c-3 -3 -12 -4 -19 -1 -8 3 -5 6 6 6 11 1 17 -2 13 -5z m-107
-24 c0 -5 -5 -10 -11 -10 -5 0 -7 5 -4 10 3 6 8 10 11 10 2 0 4 -4 4 -10z
m107 -6 c-3 -3 -12 -4 -19 -1 -8 3 -5 6 6 6 11 1 17 -2 13 -5z m958 -64 c3 -5
1 -10 -4 -10 -6 0 -11 5 -11 10 0 6 2 10 4 10 3 0 8 -4 11 -10z m-1260 -98
c-3 -3 -11 0 -18 7 -9 10 -8 11 6 5 10 -3 15 -9 12 -12z m1510 -102 c3 -5 1
-10 -4 -10 -6 0 -11 5 -11 10 0 6 2 10 4 10 3 0 8 -4 11 -10z m-15 -40 c0 -5
-2 -10 -4 -10 -3 0 -8 5 -11 10 -3 6 -1 10 4 10 6 0 11 -4 11 -10z m94 -36 c3
-8 2 -12 -4 -9 -6 3 -10 10 -10 16 0 14 7 11 14 -7z m-1874 -4 c0 -5 -5 -10
-11 -10 -5 0 -7 5 -4 10 3 6 8 10 11 10 2 0 4 -4 4 -10z m2453 -47 c-7 -2 -19
-2 -25 0 -7 3 -2 5 12 5 14 0 19 -2 13 -5z m270 0 c-7 -2 -19 -2 -25 0 -7 3
-2 5 12 5 14 0 19 -2 13 -5z m257 -43 c0 -5 -2 -10 -4 -10 -3 0 -8 5 -11 10
-3 6 -1 10 4 10 6 0 11 -4 11 -10z m-773 -36 c-3 -3 -12 -4 -19 -1 -8 3 -5 6
6 6 11 1 17 -2 13 -5z m760 0 c-3 -3 -12 -4 -19 -1 -8 3 -5 6 6 6 11 1 17 -2
13 -5z m100 -10 c-3 -3 -12 -4 -19 -1 -8 3 -5 6 6 6 11 1 17 -2 13 -5z m310
-150 c-3 -3 -12 -4 -19 -1 -8 3 -5 6 6 6 11 1 17 -2 13 -5z m-3937 -109 c0 -8
-4 -15 -10 -15 -5 0 -7 7 -4 15 4 8 8 15 10 15 2 0 4 -7 4 -15z m3547 -71 c-3
-3 -12 -4 -19 -1 -8 3 -5 6 6 6 11 1 17 -2 13 -5z m93 2 c0 -2 -7 -7 -16 -10
-8 -3 -12 -2 -9 4 6 10 25 14 25 6z m-293 -12 c-3 -3 -12 -4 -19 -1 -8 3 -5 6
6 6 11 1 17 -2 13 -5z m446 -11 c-7 -2 -19 -2 -25 0 -7 3 -2 5 12 5 14 0 19
-2 13 -5z m-63 -13 c0 -5 -7 -7 -15 -4 -8 4 -15 8 -15 10 0 2 7 4 15 4 8 0 15
-4 15 -10z m-693 -46 c-3 -3 -12 -4 -19 -1 -8 3 -5 6 6 6 11 1 17 -2 13 -5z
m123 -4 c-8 -5 -19 -10 -25 -10 -5 0 -3 5 5 10 8 5 20 10 25 10 6 0 3 -5 -5
-10z m-1250 -18 c0 -13 -12 -22 -22 -16 -10 6 -1 24 13 24 5 0 9 -4 9 -8z
m2335 -12 c3 -5 1 -10 -4 -10 -6 0 -11 5 -11 10 0 6 2 10 4 10 3 0 8 -4 11
-10z m-1314 -63 c-10 -9 -11 -8 -5 6 3 10 9 15 12 12 3 -3 0 -11 -7 -18z
m-2877 -16 c4 -5 -3 -7 -14 -4 -23 6 -26 13 -6 13 8 0 17 -4 20 -9z m2693 -57
c-3 -3 -12 -4 -19 -1 -8 3 -5 6 6 6 11 1 17 -2 13 -5z m-1532 -44 c-3 -5 -10
-10 -16 -10 -5 0 -9 5 -9 10 0 6 7 10 16 10 8 0 12 -4 9 -10z m-498 -26 c-3
-3 -12 -4 -19 -1 -8 3 -5 6 6 6 11 1 17 -2 13 -5z"/>
<path d="M3713 5375 c-54 -27 -93 -66 -93 -92 0 -12 7 -13 28 -8 70 19 115 24
224 25 105 0 118 2 128 19 5 11 10 28 10 39 0 22 -27 29 -160 38 -79 5 -89 4
-137 -21z"/>
<path d="M4063 5349 c-13 -35 -10 -50 8 -32 6 6 9 23 7 38 l-3 28 -12 -34z"/>
<path d="M4195 3380 c-143 -4 -354 -11 -470 -15 l-210 -8 45 -36 c25 -19 137
-128 250 -242 256 -257 326 -312 635 -491 452 -263 546 -314 652 -354 l62 -24
78 27 c94 31 213 89 308 151 67 43 320 233 766 573 114 87 218 161 233 165 15
3 84 51 154 106 70 55 134 103 142 108 8 5 13 11 10 13 -26 25 -2027 45 -2655
27z"/>
<path d="M0 780 l0 -780 740 0 c407 0 740 3 740 6 0 7 -40 63 -60 85 -38 39
-81 91 -115 135 -20 27 -65 78 -99 114 -33 36 -79 85 -100 110 -65 75 -266
289 -353 377 -46 45 -83 85 -83 87 0 10 -586 586 -596 586 -3 0 -17 14 -31 30
-13 17 -29 30 -34 30 -5 0 -9 -317 -9 -780z"/>
</g>
</svg>
